<svg xmlns="http://www.w3.org/2000/svg" width="23.286" height="28" viewBox="0 0 23.286 28">
  <g id="notification-icon" transform="translate(-2.05)">
    <path id="Path_2" data-name="Path 2" d="M25.092,21.467A15.229,15.229,0,0,1,22.992,14V9.333a9.333,9.333,0,1,0-18.667,0V14a15.229,15.229,0,0,1-2.1,7.467,1.06,1.06,0,0,0,0,1.167.887.887,0,0,0,.933.7h21a1.225,1.225,0,0,0,1.05-.583A1.278,1.278,0,0,0,25.092,21.467Z" fill="#1473e6"/>
    <path id="Path_3" data-name="Path 3" d="M8.6,22a4.66,4.66,0,0,0,3.967,2.333A4.66,4.66,0,0,0,16.533,22Z" transform="translate(1.092 3.667)" fill="#1473e6"/>
  </g>
</svg>
